# xmcd
#
# Track frame offsets:
# 150
# 10175
# 29530
# 44791
# 60842
# 82971
# 101836
# 117997
# 132881
# 151408
# 162619
# 179534
# 192880
# 212573
# 234289
# 251127
# 263837
# 288759
#
# Disc length: 4095 seconds
#
#
# Revision: 1
# Processed by: cddbd v1.5.1PL2 Copyright (c) Steve Scherf et al.
# Submitted via: FreeRIP 2.945 
#
DISCID=f90ffd12
DTITLE=Banda Calypso - Título Desconhecido
DYEAR=1900
DGENRE=Country
TTITLE0=Calypso na Amazônia
TTITLE1=Pra te Esquecer
TTITLE2=Nenê
TTITLE3=Anjo
TTITLE4=Primeiro Amor
TTITLE5=Disse Adeus
TTITLE6=Tic Tac
TTITLE7=Dois Corações
TTITLE8=Imagino
TTITLE9=Lágrimas de Sangue
TTITLE10=Love You Mon Amor
TTITLE11=Lambada Complicada
TTITLE12=Homen Perfeito
TTITLE13=Pout-Pourri de Carimbó
TTITLE14=Fala Pra Mim
TTITLE15=Brincou Comigo
TTITLE16=Paquera
TTITLE17=Faixa 18
EXTD=by d.aparecido
EXTT0=
EXTT1=
EXTT2=
EXTT3=
EXTT4=
EXTT5=
EXTT6=
EXTT7=
EXTT8=
EXTT9=
EXTT10=
EXTT11=
EXTT12=
EXTT13=
EXTT14=
EXTT15=
EXTT16=
EXTT17=
PLAYORDER=
